<svg xmlns="http://www.w3.org/2000/svg" width="290" height="237" fill="none" viewBox="0 0 290 237"><path fill="#915B3C" fill-rule="evenodd" d="M220.29 29.252C223.794 25.4387 226.165 20.7653 225.769 15.5287C224.627 0.440622 201.976 3.75981 197.569 11.375C193.163 18.9902 193.687 38.3067 199.381 39.6678C201.652 40.2105 206.49 38.8809 211.414 36.1291L208.324 56.4029H226.573L220.29 29.252Z" clip-rule="evenodd"/><path fill="#191847" fill-rule="evenodd" d="M221.693 32.6485C223.983 23.2002 230.508 16.7597 229.512 12.5367C228.847 9.72144 227.076 7.9707 224.199 7.28453C222.711 1.70302 217.912 -0.671019 209.802 0.162424C197.637 1.41259 190.212 6.09698 193.418 16.4047C196.366 16.4047 199.924 15.4163 204.844 17.1097C206.406 17.647 207.522 19.3133 208.194 22.1085H210.418C212.576 18.7914 214.704 17.5724 216.801 18.4516C218.899 19.3309 219.376 21.4665 218.232 24.8586L219.327 32.6485H221.693Z" clip-rule="evenodd"/><path fill="#C5CFD6" fill-rule="evenodd" d="M277.518 144.532H190.075C183.355 144.532 177.908 149.583 177.908 155.813V220.676C177.908 226.906 183.355 231.957 190.075 231.957H277.518C284.237 231.957 289.684 226.906 289.684 220.676V155.813C289.684 149.583 284.237 144.532 277.518 144.532ZM265.352 164.273C267.032 164.273 268.394 165.536 268.394 167.094V209.396C268.394 210.953 267.032 212.216 265.352 212.216H202.241C200.561 212.216 199.199 210.953 199.199 209.396V167.094C199.199 165.536 200.561 164.273 202.241 164.273H265.352Z" clip-rule="evenodd"/><path fill="#B28B67" fill-rule="evenodd" d="M102.51 228.432C117.502 211.457 127.645 198.873 132.941 190.68C142.009 176.65 149.43 164.166 151.772 159.398C157.357 148.026 138.915 142.701 134.741 148.005C128.424 156.033 114.932 181.295 94.2667 223.791L102.51 228.432Z" clip-rule="evenodd"/><path fill="#3A3A3A" fill-rule="evenodd" d="M133.23 223.496L161.131 158.377C167.098 146.506 138.281 138.703 133.895 144.228C123.939 156.77 100.275 206.247 97.3082 209.984L133.23 223.496Z" clip-rule="evenodd"/><path fill="#915B3C" fill-rule="evenodd" d="M207.538 210.437C202.103 203.086 182.335 178.356 171.568 168.124C168.474 165.183 165.455 162.361 162.599 159.731C154.112 151.914 137.21 165.053 145.682 172.173C166.78 189.905 197.563 213.842 200.135 215.977C203.74 218.968 210.954 215.057 207.538 210.437Z" clip-rule="evenodd"/><path fill="#000" fill-rule="evenodd" d="M206.267 207.117C208.139 208.546 209.357 209.713 209.921 210.618C210.606 211.719 211.409 213.432 212.329 215.756C210.951 216.493 198.571 223.121 175.188 235.639C172.38 233.197 171.943 231.301 173.875 229.952C175.808 228.603 177.403 227.465 178.66 226.539L191.48 210.162C191.726 209.847 192.202 209.777 192.542 210.005C192.547 210.009 192.553 210.013 192.559 210.017L195.223 211.919C197.666 211.722 199.49 211.3 200.693 210.656C201.671 210.133 202.794 209.044 204.06 207.389L204.06 207.389C204.547 206.754 205.496 206.605 206.181 207.055C206.21 207.075 206.239 207.095 206.267 207.117Z" clip-rule="evenodd"/><path fill="#000" fill-rule="evenodd" d="M108.959 225.895C109.809 228.001 110.235 229.576 110.235 230.621C110.235 231.893 110.006 233.748 109.549 236.187C107.959 236.187 93.6631 236.187 66.6626 236.187C65.5481 232.771 66.1915 230.927 68.5926 230.654C70.9938 230.382 72.9885 230.136 74.5767 229.916L94.51 221.677C94.8936 221.518 95.3431 221.678 95.5141 222.034C95.517 222.04 95.5199 222.046 95.5226 222.052L96.8039 224.934C99.0268 225.895 100.833 226.376 102.223 226.376C103.352 226.376 104.911 225.953 106.901 225.108L106.901 225.108C107.664 224.783 108.567 225.094 108.917 225.802C108.932 225.833 108.946 225.864 108.959 225.895Z" clip-rule="evenodd"/><path fill="#5C5C5C" fill-rule="evenodd" d="M171.17 161.63C194.359 158.127 209.891 155.732 217.767 154.444C240.216 150.774 246.762 139.573 242.892 115.134H201.53C196.057 116.6 173.186 125.664 132.919 142.327C125.674 145.662 127.023 155.494 128.347 158.733C128.401 158.865 140.615 178.271 164.988 216.949L198.823 196.963L171.106 163.985C170.374 162.618 170.396 161.833 171.17 161.63Z" clip-rule="evenodd"/><path fill="#915B3C" fill-rule="evenodd" d="M168.19 105.905L143.935 122.419C137.357 124.065 131.861 126.113 127.447 128.562C126.404 129.443 125.144 131.227 129.468 130.919C133.792 130.611 138.355 130.467 138.952 131.834C139.548 133.201 136.932 134.837 138.138 136.682C138.942 137.912 142.74 134.828 149.533 127.429L173.552 118.194L168.19 105.905ZM261.316 106.474L245.426 106.532C255.237 135.9 260.534 151.482 261.316 153.279C263.076 157.322 259.352 163.479 257.76 166.788C262.946 168.94 262.393 160.972 268.935 163.794C274.906 166.369 279.448 171.036 286.347 167.09C287.195 166.604 288.125 164.777 285.879 163.35C280.284 159.793 272.222 153.567 271.133 151.518C269.647 148.724 266.375 133.709 261.316 106.474Z" clip-rule="evenodd"/><path fill="#B2B2B2" fill-rule="evenodd" d="M216.159 44.6514L209.584 43.6057C185.189 63.146 175.169 100.685 145.266 120.572L152.463 128.844C204.339 122.888 217.197 77.0991 216.159 44.6514Z" clip-rule="evenodd"/><path fill="#DDE3E9" fill-rule="evenodd" d="M244.822 121.266C218.458 121.266 199.066 121.266 186.644 121.266C183.986 121.266 184.487 117.707 184.871 115.911C189.306 95.1826 206.619 72.8384 206.619 43.3321L223.401 40.8921C237.281 61.5909 242.081 87.0752 244.822 121.266Z" clip-rule="evenodd"/><path fill="#B3B3B3" fill-rule="evenodd" d="M244.354 61.238C246.792 60.5884 248.722 59.0733 250.145 56.6928C256.278 46.4309 254.063 40.781 247.508 38.9238C240.953 37.0667 235.108 40.8921 224.664 40.8921C224.096 40.8921 223.576 40.9251 223.103 40.9912L217.85 41.2691C202.777 88.6338 198.621 120.235 205.379 136.072H251.17C253.883 141.938 256.479 146.873 258.958 150.878H271.435C272.609 115.673 263.582 85.7933 244.354 61.238Z" clip-rule="evenodd"/><path fill="#000" fill-opacity=".1" fill-rule="evenodd" d="M241.198 111.747C239.758 122.919 237.418 131.027 234.177 136.072H251.17C248.005 129.23 244.681 121.121 241.198 111.747Z" clip-rule="evenodd"/><path fill="#F2F2F2" fill-rule="evenodd" d="M5.2593 133.676C4.09478 133.098 2.54235 133.768 3.18995 135.296C3.88365 136.932 6.44844 136.952 7.89693 136.92C7.75195 136.912 7.2851 135.412 7.12528 135.185C6.65393 134.517 5.97522 134.032 5.2593 133.676ZM18.6767 163.004C18.9705 163.256 18.7006 163.028 18.6767 163.004V163.004ZM4.13748 141.075C3.45601 141.596 3.42351 142.516 3.98018 143.139C4.64305 143.881 5.85344 143.854 6.75694 143.782C7.16565 143.749 9.34792 143.574 8.83065 143.217C8.87045 143.232 8.95354 143.268 9.04247 143.318C9.09032 143.493 9.14058 143.667 9.19295 143.841C9.18012 143.848 9.16918 143.857 9.15546 143.864C9.17032 143.857 9.18075 143.85 9.19383 143.844C9.71863 145.579 10.4656 147.231 11.4438 148.777C11.0778 148.632 10.6988 148.523 10.3143 148.475C9.17584 148.331 6.78085 149.216 8.05433 150.733C9.2754 152.187 11.1764 150.627 12.5622 150.412C13.9064 152.289 15.3884 154.088 16.9416 155.827C16.8464 155.857 16.7629 155.919 16.715 156.016C16.092 155.699 15.4427 155.247 14.866 155.124C14.0339 154.948 12.3276 154.841 11.6986 155.586C10.9251 156.503 11.7543 157.247 12.6682 157.423C13.9934 157.678 15.7282 157.03 17.0033 156.592C17.1491 156.618 17.3084 156.575 17.4035 156.458C17.4317 156.449 17.4599 156.44 17.4873 156.431C19.0601 158.162 20.6932 159.835 22.3162 161.472C22.299 161.471 22.2817 161.47 22.2637 161.469C21.8403 161.191 21.3861 160.963 20.8939 160.844C19.7552 160.566 18.4153 160.565 17.4912 161.389C16.5707 162.21 16.2447 163.646 17.197 164.568C19.1031 166.413 21.9116 162.206 22.8731 162.03C24.5225 163.676 26.2666 165.214 28.0381 166.72C27.8369 166.659 27.6306 166.614 27.4173 166.594C25.6802 166.427 21.6028 168.558 23.7347 170.655C25.5925 172.482 27.7427 168.965 29.2399 167.736C30.9092 169.14 32.5877 170.534 34.2189 171.984C33.3292 171.747 32.4694 171.712 31.5156 172.001C30.5287 172.3 28.9362 173.045 29.5601 174.379C30.1946 175.735 32.107 175.118 33.103 174.687C33.6462 174.452 34.7354 173.66 35.6917 173.326C38.2948 175.785 40.5496 178.494 42.2565 181.685C43.3222 183.677 44.1309 185.806 44.7001 187.994C45.0634 189.39 45.7793 191.735 45.636 193.553C46.3191 189.915 45.0839 185.546 43.7534 182.294C42.5299 179.304 40.699 176.679 38.5544 174.316C39.0926 172.696 43.6224 170.36 40.9144 168.855C39.4764 168.059 38.0035 169.38 37.6892 170.778C37.4733 171.739 37.8022 172.946 38.1513 173.879C37.4767 173.159 36.7753 172.462 36.0526 171.788C35.0539 170.856 34.0312 169.952 32.9988 169.059C34.7001 167.459 36.3103 162.887 34.0291 162.139C30.6606 161.038 32.2825 167.275 32.5175 168.444C32.5842 168.448 32.6362 168.428 32.6745 168.384C32.6555 168.492 32.6336 168.606 32.6069 168.721C30.6308 167.021 28.6254 165.354 26.6861 163.613C26.8608 163.484 27.1386 162.99 27.3569 162.727C27.8496 162.135 28.321 161.516 28.6655 160.823C29.2097 159.728 29.7345 157.98 28.292 157.336C26.7232 156.634 25.9776 158.61 25.9667 159.789C25.9592 160.604 26.1811 161.379 26.2967 162.178C26.3328 162.427 26.1937 163.551 26.533 163.067C26.517 163.245 26.5147 163.375 26.5226 163.466C26.1745 163.152 25.829 162.834 25.4857 162.515C25.5016 162.474 25.5134 162.43 25.516 162.379C25.5344 162.028 25.181 161.892 24.9332 161.995C24.4802 161.564 24.0316 161.128 23.5911 160.683C22.6573 159.741 21.71 158.772 20.7693 157.782C20.9734 157.606 20.8922 157.363 21.0831 157.177C21.2737 156.991 21.649 156.888 21.8731 156.716C22.4367 156.281 22.9041 155.648 23.2421 155.025C23.8002 153.996 24.5214 151.837 22.8911 151.346C21.2108 150.84 20.3579 152.918 20.2498 154.218C20.2288 154.469 20.4171 156.738 20.5614 157.561C18.8206 155.721 17.1086 153.812 15.5575 151.87C16.0278 151.866 17.3611 150.902 17.6307 150.639C18.2884 149.997 19.3339 148.579 18.1809 147.828C17.1556 147.163 15.8918 148.127 15.4534 149.064C15.3814 149.218 15.1272 150.654 15.1074 151.298C14.4654 150.475 13.853 149.646 13.2833 148.815C12.9033 148.262 12.5482 147.695 12.216 147.116C12.296 147.071 12.3712 146.992 12.4423 146.893C14.1522 146.603 16.3323 143.933 14.3238 143.004C13.3675 142.562 12.3305 143.474 11.862 144.221C11.7661 144.373 11.6106 145.141 11.4841 145.747C10.5283 143.828 9.79795 141.797 9.24205 139.714C9.39091 139.677 9.51697 139.563 9.53359 139.367C10.3638 138.894 11.0194 138.499 11.5989 137.588C11.9589 137.023 12.6073 135.73 11.5494 135.416C10.1727 135.008 9.30795 137.112 9.19532 138.148C9.18221 138.269 9.18268 138.619 9.18722 138.939C9.13943 138.933 9.09111 138.934 9.04373 138.942C8.72754 137.652 8.47516 136.346 8.27444 135.037C9.02585 134.795 9.1558 130.846 8.65548 130.284C7.53719 129.025 6.74824 130.844 6.80794 131.805C6.87846 132.938 7.39169 133.969 8.00283 134.884C8.0684 134.981 8.04969 134.977 8.06668 134.842C8.07607 134.908 8.09838 134.958 8.13147 134.993C8.09992 135.59 8.03846 136.201 8.06798 136.729C8.1526 138.24 8.32859 139.761 8.58411 141.253C8.64626 141.616 8.71744 141.976 8.79724 142.333C8.19329 141.818 7.37899 141.361 7.06036 141.218C6.23338 140.847 4.9589 140.446 4.13748 141.075ZM45.733 193.558C45.6946 194.085 45.5995 194.568 45.422 194.966C45.5551 194.512 45.6573 194.041 45.733 193.558Z" clip-rule="evenodd"/><g opacity=".7"><path fill="#69A1AC" fill-rule="evenodd" d="M27.9117 169.384C31.1459 169.216 35.1458 171.105 35.4908 174.623C35.7415 177.179 35.6639 179.728 36.0518 182.28C36.3619 184.32 37.0179 186.278 37.9126 188.136C38.773 189.923 40.5576 191.444 41.0217 193.353C41.3176 194.569 41.152 196.28 40.744 197.469C40.2479 198.916 40.5116 198.801 41.5002 200.015C43.4374 202.394 45.1817 204.833 46.4153 207.673C48.1921 211.765 49.357 216.548 48.6976 221.027C48.6137 221.595 48.5142 223.636 47.7315 223.779C46.8574 223.938 47.2662 222.771 47.3128 222.394C47.6102 219.988 47.8745 217.885 47.5157 215.442C46.1314 206.014 39.3725 199.802 34.9716 191.8C34.7296 191.388 34.2189 190.405 33.8638 189.757C33.3031 188.733 32.7395 186.786 31.9805 186.027C30.5511 184.597 31.8652 187.471 32.1438 188.02C32.4959 188.714 32.8833 189.452 33.2442 190.06C34.8954 192.879 36.7384 195.956 38.4438 198.862C31.0684 200.544 25.8741 191.671 23.8949 185.838C22.2642 181.031 20.3131 169.795 27.9117 169.384Z" clip-rule="evenodd" opacity=".7"/><path fill="#89C5CC" fill-rule="evenodd" d="M71.2601 160.459C65.8534 160.888 62.3825 164.458 60.7667 169.451C59.8959 172.142 59.7961 174.907 59.3122 177.672C58.5842 181.833 57.0178 184.986 53.9567 187.95C53.0086 188.868 52.3099 189.81 51.8132 190.819C50.8272 191.826 49.969 192.965 49.3384 194.358C48.5329 196.137 48.305 198.271 49.235 200.045C49.485 200.521 50.1088 201.479 50.7553 201.913C48.3349 207.072 47.004 212.721 47.1541 218.364C47.2447 221.77 47.4109 225.177 47.6047 228.579C47.6569 229.492 47.9542 231.001 48.4006 229.469C48.8093 228.068 48.2968 225.868 48.2494 224.404C48.0187 217.273 47.8215 210.79 50.7549 204.127C51.0625 203.429 51.3887 202.736 51.7283 202.049C51.7483 202.038 51.7668 202.024 51.7855 202.01C51.7985 202.02 51.8102 202.031 51.8232 202.041C51.8449 202.002 51.8746 201.956 51.9092 201.904C52.0067 201.804 52.0917 201.677 52.1726 201.535C52.4328 201.174 52.7273 200.75 52.7289 200.518C52.7289 200.516 52.7279 200.513 52.7279 200.512C54.5438 197.545 56.6238 194.742 58.7483 191.994C58.7324 192.014 61.0528 188.853 60.694 190.601C60.5211 191.444 58.8143 193.048 58.125 193.941C56.6001 195.926 54.8094 198.442 53.3214 200.875C53.1211 200.99 52.8382 201.555 52.6336 201.976C52.5207 202.189 52.4153 202.405 52.3117 202.592C57.5843 204.335 61.6858 200.824 64.4825 196.74C64.4859 196.735 64.4889 196.73 64.4921 196.725C65.3432 195.597 66.215 194.476 67.3042 193.584C69.1213 192.095 71.0674 191.833 73.2099 191.1C79.0527 189.103 81.5368 181.525 82.3258 175.903C83.2159 169.56 78.8618 159.833 71.2601 160.459Z" clip-rule="evenodd" opacity=".7"/><path fill="#89C5CC" fill-rule="evenodd" d="M60.5801 142.696C55.031 148.475 52.3502 156.491 50.2274 164.027C47.8565 172.443 46.2905 180.99 46.2304 189.74C46.191 195.49 46.0347 201.275 46.3701 207.018C46.489 209.057 46.6922 211.1 47.0152 213.118C47.0418 213.283 47.7646 217.788 48.4561 216.739C48.8494 216.142 47.7153 212.065 47.6296 211.386C47.1475 207.563 47.0355 203.71 47.059 199.859C47.0977 193.517 46.9108 187.209 47.5531 180.89C47.6489 179.947 47.7246 178.956 47.9486 178.033C48.1863 177.052 47.8835 177.481 48.6579 177.092C49.4104 176.715 50.3402 176.769 51.121 176.295C54.2178 174.416 55.802 169.589 57.035 166.422C58.4453 162.8 59.3024 158.938 59.987 155.127C60.4896 152.326 60.849 149.543 61.0524 146.707C61.1165 145.813 61.1203 144.878 61.2958 143.999C61.3431 143.762 61.5804 143.342 61.5718 143.132C61.5536 142.688 61.2855 142.427 61.2636 142.053C61.0313 142.263 60.8032 142.477 60.5801 142.696Z" clip-rule="evenodd" opacity=".7"/><path fill="#89C5CC" fill-rule="evenodd" d="M30.3229 219.695C30.3229 229.252 38.0655 237 47.6164 237C57.1674 237 64.9099 229.252 64.9099 219.695" clip-rule="evenodd" opacity=".7"/><path fill="#69A1AC" fill-rule="evenodd" d="M49.004 219.75H48.0902C48.1536 218.603 48.2374 217.457 48.429 216.323C49.1621 211.984 51.4541 205.611 56.4812 204.907C56.6666 204.881 57.3488 204.876 58.1752 204.925C58.5669 204.706 59.0056 204.573 59.4678 204.543C63.7479 204.227 68.5276 207.683 70.5922 211.278C72.2565 214.177 71.9761 217.984 70.9481 221.064C70.2598 223.126 68.7574 226.066 66.2519 226.095C63.1173 226.131 62.9662 222.254 62.9055 219.988C62.825 216.975 62.4445 214.35 60.0718 212.296C59.5189 211.817 58.9144 211.397 58.3559 210.925C57.4813 210.186 56.5147 209.43 56.402 208.208C56.2465 206.523 57.1973 206.219 58.649 206.533C58.8965 206.586 61.3894 207.705 61.0203 206.82C60.9076 206.55 60.496 206.336 59.9765 206.176C58.6323 206.029 57.0292 205.86 56.5681 205.961C51.5943 207.053 49.6578 213.947 49.1435 218.328C49.088 218.8 49.0431 219.275 49.004 219.75Z" clip-rule="evenodd" opacity=".7"/></g></svg>