<svg xmlns="http://www.w3.org/2000/svg" width="30" height="30" fill="none" viewBox="0 0 30 30"><path fill="#000" d="M15 1.66667C12.3629 1.66667 9.78505 2.44865 7.59239 3.91374C5.39974 5.37883 3.69077 7.46121 2.6816 9.89756C1.67243 12.3339 1.40839 15.0148 1.92286 17.6012C2.43733 20.1876 3.70721 22.5634 5.57191 24.4281C7.43661 26.2928 9.81238 27.5627 12.3988 28.0771C14.9852 28.5916 17.6661 28.3276 20.1024 27.3184C22.5388 26.3092 24.6212 24.6003 26.0863 22.4076C27.5513 20.215 28.3333 17.6371 28.3333 15C28.3333 11.4638 26.9286 8.0724 24.4281 5.57191C21.9276 3.07143 18.5362 1.66667 15 1.66667ZM21.375 19.6583C20.5417 22.1583 18.3667 22.8583 16.4583 22.9917V24.6583C16.4583 24.9346 16.3486 25.1996 16.1532 25.3949C15.9579 25.5903 15.6929 25.7 15.4167 25.7C15.1404 25.7 14.8754 25.5903 14.6801 25.3949C14.4847 25.1996 14.375 24.9346 14.375 24.6583V22.9917C12.4614 22.8122 10.6463 22.0601 9.16666 20.8333C9.06653 20.7398 8.98581 20.6274 8.9291 20.5026C8.8724 20.3779 8.84082 20.2432 8.83618 20.1062C8.83154 19.9692 8.85392 19.8327 8.90204 19.7044C8.95017 19.576 9.0231 19.4585 9.11666 19.3583C9.21023 19.2582 9.3226 19.1775 9.44737 19.1208C9.57213 19.0641 9.70684 19.0325 9.84381 19.0279C9.98077 19.0232 10.1173 19.0456 10.2456 19.0937C10.3739 19.1418 10.4915 19.2148 10.5917 19.3083C11.6823 20.1866 12.9945 20.7461 14.3833 20.925V15.6917C13.2766 15.5212 12.2178 15.1209 11.275 14.5167C10.4825 14.0196 9.88923 13.2605 9.59843 12.3714C9.30763 11.4822 9.33767 10.5193 9.68333 9.65C10.175 8.39167 11.7 6.95833 14.3833 6.725V5.20833C14.3833 4.93207 14.4931 4.66712 14.6884 4.47177C14.8838 4.27641 15.1487 4.16667 15.425 4.16667C15.7013 4.16667 15.9662 4.27641 16.1616 4.47177C16.3569 4.66712 16.4667 4.93207 16.4667 5.20833V6.75833C17.9563 6.92336 19.3704 7.50054 20.55 8.425C20.7135 8.61737 20.8016 8.86257 20.7978 9.115C20.7941 9.36743 20.6988 9.60992 20.5297 9.79737C20.3606 9.98482 20.1292 10.1045 19.8784 10.1341C19.6277 10.1637 19.3748 10.1012 19.1667 9.95833C18.371 9.3764 17.4432 9.00128 16.4667 8.86667V13.975C16.9667 14.0833 17.5 14.2 18.0583 14.375C18.7042 14.536 19.3102 14.8276 19.839 15.2318C20.3679 15.6359 20.8084 16.1441 21.1333 16.725C21.5974 17.6327 21.6843 18.6869 21.375 19.6583Z"/><path fill="#000" d="M17.4333 16.3667C17.1 16.2667 16.775 16.1833 16.4583 16.1167V20.9167C18.125 20.75 19.0167 20.1667 19.4 19C19.5278 18.5612 19.4831 18.0902 19.275 17.6833C19.0716 17.3519 18.8039 17.0646 18.4876 16.8384C18.1712 16.6123 17.8128 16.4519 17.4333 16.3667Z"/><path fill="#000" d="M11.6167 10.4C11.4428 10.832 11.4314 11.3124 11.5846 11.7522C11.7378 12.1919 12.0453 12.5613 12.45 12.7917C13.0391 13.1691 13.6956 13.4295 14.3833 13.5583V8.79167C12.6333 9 11.825 9.86667 11.6167 10.4Z"/></svg>