<svg width="22" height="25" viewBox="0 0 22 25" fill="none" xmlns="http://www.w3.org/2000/svg">
<path d="M1.25 25C0.918479 25 0.600537 24.8683 0.366117 24.6339C0.131696 24.3995 0 24.0815 0 23.75V13.75C0 13.4185 0.131696 13.1005 0.366117 12.8661C0.600537 12.6317 0.918479 12.5 1.25 12.5C1.58152 12.5 1.89946 12.6317 2.13388 12.8661C2.3683 13.1005 2.5 13.4185 2.5 13.75V23.75C2.5 24.0815 2.3683 24.3995 2.13388 24.6339C1.89946 24.8683 1.58152 25 1.25 25ZM7.5 25C7.16848 25 6.85054 24.8683 6.61612 24.6339C6.3817 24.3995 6.25 24.0815 6.25 23.75V1.25C6.25 0.918479 6.3817 0.600537 6.61612 0.366116C6.85054 0.131696 7.16848 0 7.5 0C7.83152 0 8.14946 0.131696 8.38388 0.366116C8.6183 0.600537 8.75 0.918479 8.75 1.25V23.75C8.75 24.0815 8.6183 24.3995 8.38388 24.6339C8.14946 24.8683 7.83152 25 7.5 25ZM13.75 25C13.4185 25 13.1005 24.8683 12.8661 24.6339C12.6317 24.3995 12.5 24.0815 12.5 23.75V8.75C12.5 8.41848 12.6317 8.10054 12.8661 7.86612C13.1005 7.6317 13.4185 7.5 13.75 7.5C14.0815 7.5 14.3995 7.6317 14.6339 7.86612C14.8683 8.10054 15 8.41848 15 8.75V23.75C15 24.0815 14.8683 24.3995 14.6339 24.6339C14.3995 24.8683 14.0815 25 13.75 25ZM20 25C19.6685 25 19.3505 24.8683 19.1161 24.6339C18.8817 24.3995 18.75 24.0815 18.75 23.75V18.75C18.75 18.4185 18.8817 18.1005 19.1161 17.8661C19.3505 17.6317 19.6685 17.5 20 17.5C20.3315 17.5 20.6495 17.6317 20.8839 17.8661C21.1183 18.1005 21.25 18.4185 21.25 18.75V23.75C21.25 24.0815 21.1183 24.3995 20.8839 24.6339C20.6495 24.8683 20.3315 25 20 25Z" fill="black"/>
</svg>
